<?xml version="1.0" standalone="no"?>
<!DOCTYPE svg PUBLIC "-//W3C//DTD SVG 20010904//EN"
 "http://www.w3.org/TR/2001/REC-SVG-20010904/DTD/svg10.dtd">
<svg version="1.0" xmlns="http://www.w3.org/2000/svg"
 width="800.000000pt" height="800.000000pt" viewBox="0 0 800.000000 800.000000"
 preserveAspectRatio="xMidYMid meet">
<metadata>
Created by potrace 1.11, written by Peter Selinger 2001-2013
</metadata>
<g transform="translate(0.000000,800.000000) scale(0.100000,-0.100000)"
fill="#000000" stroke="none">
<path d="M3872 7981 c-138 -47 -231 -184 -233 -344 -1 -51 37 -187 52 -187 5
0 9 -6 9 -13 0 -16 86 -99 123 -117 15 -7 27 -17 27 -22 0 -8 -30 -148 -106
-488 -12 -56 -14 -68 -21 -100 -4 -19 -8 -37 -9 -40 0 -3 -4 -24 -9 -47 -4
-23 -12 -44 -19 -46 -6 -2 -316 -4 -689 -4 -372 0 -681 -3 -685 -7 -4 -4 -7
-116 -8 -249 l0 -241 -155 -2 c-85 0 -160 -2 -166 -2 -16 -2 -19 -822 -3 -838
6 -6 46 -9 90 -7 44 2 80 0 81 -5 1 -4 2 -150 3 -325 1 -272 3 -320 16 -326 8
-5 312 -8 674 -7 440 1 664 -2 673 -9 10 -7 13 -26 11 -60 -3 -48 -4 -49 -36
-50 -18 0 -37 -7 -41 -14 -5 -7 -8 -46 -6 -87 1 -41 -1 -74 -4 -75 -3 -1 -84
-2 -180 -3 l-173 -1 -54 51 c-45 41 -131 97 -154 99 -3 0 -9 3 -15 7 -26 16
-142 30 -213 25 -202 -13 -371 -146 -437 -342 -19 -55 -27 -197 -15 -231 6
-16 3 -27 -9 -41 -10 -11 -56 -82 -101 -159 -46 -76 -109 -182 -140 -234 -31
-52 -67 -114 -79 -138 -20 -39 -24 -82 -9 -98 7 -7 3 -14 -116 -214 -47 -80
-86 -150 -86 -157 0 -6 -15 -14 -32 -18 -61 -13 -138 -68 -193 -137 -17 -21
-42 -80 -54 -124 -6 -22 -17 -41 -23 -41 -17 0 -101 -11 -166 -22 -30 -4 -77
-6 -106 -4 -58 5 -74 -5 -146 -95 -19 -24 -43 -54 -54 -65 -10 -12 -30 -38
-45 -57 -14 -19 -33 -42 -41 -50 -81 -87 -169 -231 -173 -281 -1 -10 -4 -19
-8 -19 -3 0 -7 -40 -7 -90 0 -70 5 -104 23 -155 34 -94 78 -167 94 -156 14 9
73 79 216 256 17 21 38 47 48 59 11 11 42 49 69 83 28 34 57 64 64 67 18 7
184 -125 184 -146 0 -8 -149 -199 -170 -218 -3 -3 -44 -52 -90 -110 -47 -58
-91 -111 -97 -118 -45 -47 30 -84 176 -87 167 -4 292 62 431 230 77 93 120
149 120 156 0 5 7 9 15 9 8 0 15 4 15 8 0 5 11 22 25 38 65 74 82 121 60 164
-8 15 -14 36 -14 46 0 33 -11 159 -15 170 -2 6 26 20 63 32 57 19 147 77 159
104 2 3 14 19 28 35 13 15 24 35 24 43 0 9 4 20 10 26 16 16 26 116 17 177 -8
55 -7 59 22 99 17 23 31 46 31 51 0 4 6 14 13 22 6 7 41 63 76 123 56 98 67
111 96 116 18 4 39 14 47 24 8 9 72 114 143 232 70 118 133 224 140 236 10 16
21 20 43 16 l31 -4 -1 -765 c0 -523 3 -768 11 -776 6 -6 49 -10 100 -9 l89 0
-31 -50 c-56 -90 -38 -205 43 -271 l22 -19 -21 -14 c-26 -19 -59 -82 -66 -127
-8 -51 9 -111 44 -156 l32 -40 -26 -28 c-34 -37 -59 -122 -50 -174 4 -22 23
-63 42 -91 29 -44 32 -54 20 -63 -23 -17 -57 -78 -57 -102 0 -13 -6 -24 -15
-24 -17 -2 -15 -1 -75 -18 -368 -103 -617 -347 -637 -627 -6 -81 -6 -81 82
-92 55 -8 1612 -8 1685 0 l45 4 1 230 c0 141 -5 257 -12 301 -9 50 -10 82 -3
105 23 78 4 165 -47 219 -25 26 -25 27 -6 41 26 18 66 94 58 113 -3 8 -1 17 3
19 23 14 -32 158 -69 181 -7 4 1 18 20 38 72 74 65 215 -15 289 l-28 26 27 29
c64 67 75 178 24 252 -15 23 -28 43 -28 45 0 2 86 4 190 4 105 1 190 -2 190
-7 0 -5 -7 -14 -14 -21 -17 -13 -36 -65 -40 -107 -4 -43 19 -108 53 -151 l31
-39 -25 -19 c-14 -10 -34 -38 -45 -62 -41 -86 -24 -185 42 -243 17 -16 17 -18
-17 -55 -19 -21 -35 -43 -36 -48 0 -6 -3 -20 -6 -31 -2 -11 -5 -41 -5 -67 -1
-47 26 -105 64 -139 17 -15 16 -17 -7 -39 -27 -25 -57 -95 -60 -138 -1 -15 3
-40 8 -57 12 -40 17 -85 8 -85 -4 0 -7 -8 -8 -17 -17 -304 -22 -528 -12 -545
11 -17 22 -18 304 -23 570 -9 1386 -4 1453 9 62 13 64 15 61 69 -14 288 -264
542 -634 646 -22 6 -51 13 -65 15 -18 2 -26 11 -31 32 -8 39 -22 64 -52 93
l-26 23 25 23 c72 67 76 209 9 280 l-31 34 22 24 c77 84 77 213 0 290 l-25 25
28 28 c41 43 62 89 63 142 1 55 -11 112 -23 112 -5 0 -9 7 -9 15 0 8 -4 15
-10 15 -5 0 -10 5 -10 10 0 6 26 10 59 10 35 0 63 5 67 12 10 15 11 699 1 705
-4 2 -4 9 -1 15 9 15 10 451 1 465 -4 7 -4 14 0 16 5 3 7 78 7 166 -1 89 1
161 5 161 8 -1 141 -226 141 -239 0 -6 5 -11 10 -11 6 0 10 -4 10 -9 0 -11
107 -190 127 -213 9 -10 30 -20 47 -24 23 -4 39 -17 59 -48 15 -24 27 -48 27
-54 0 -6 3 -12 8 -14 8 -3 112 -176 112 -186 0 -3 9 -16 21 -28 19 -20 20 -28
11 -85 -22 -147 55 -297 187 -361 25 -12 48 -23 51 -23 53 -8 66 -17 64 -43
-2 -15 -5 -54 -8 -87 -7 -74 -12 -98 -25 -123 -18 -33 -2 -72 62 -151 34 -42
67 -83 74 -91 6 -8 38 -46 70 -85 32 -38 65 -79 73 -89 8 -10 26 -28 39 -40
13 -12 31 -28 40 -37 92 -90 300 -132 439 -88 47 15 62 24 62 38 0 11 -39 66
-86 123 -83 100 -123 148 -174 212 -14 17 -27 33 -30 36 -46 41 -94 130 -71
130 4 0 17 10 31 23 14 12 49 41 79 64 61 48 70 47 117 -14 15 -21 33 -43 39
-49 20 -22 90 -108 104 -128 8 -12 22 -28 31 -36 9 -8 23 -24 31 -36 16 -25
96 -120 122 -146 25 -26 47 -8 81 64 73 154 75 278 6 419 -30 60 -99 159 -112
159 -4 0 -8 6 -8 14 0 8 -3 16 -7 18 -8 3 -83 92 -153 179 -71 89 -88 101
-143 96 -28 -2 -75 0 -106 5 -31 4 -78 10 -106 13 -74 8 -82 12 -88 49 -18
113 -135 238 -244 261 -21 4 -34 14 -39 28 -3 12 -49 94 -102 182 -52 88 -95
165 -94 170 1 6 3 23 6 39 5 30 -21 94 -53 130 -9 10 -16 21 -15 25 1 3 -10
23 -22 43 -13 21 -24 39 -24 41 0 2 -31 55 -70 118 -38 63 -80 134 -92 158
-13 24 -35 56 -49 70 -20 21 -24 32 -18 53 4 14 5 62 4 105 -9 204 -137 376
-335 449 -60 22 -233 27 -292 9 -69 -22 -108 -39 -108 -47 0 -4 -7 -8 -15 -8
-17 0 -41 -18 -99 -74 l-41 -40 -112 -1 c-72 0 -113 3 -114 10 -1 5 0 38 0 73
1 84 -10 105 -54 98 -28 -5 -33 -2 -36 17 -2 12 -2 40 1 62 l5 40 383 0 c210
0 382 -4 382 -8 0 -5 5 -5 12 -1 7 4 124 7 260 7 172 0 251 3 256 11 4 6 7
155 7 331 l0 320 79 1 c43 1 82 6 88 12 11 11 15 819 4 830 -4 4 -78 8 -164 9
-86 0 -161 1 -167 2 -6 1 -10 86 -10 236 1 130 -2 241 -6 247 -5 8 -222 11
-758 11 -680 0 -751 2 -752 16 -3 30 -8 56 -33 171 -28 127 -33 151 -41 195
-8 44 -25 124 -35 170 -5 22 -12 54 -14 70 -3 17 -8 47 -12 67 -6 36 -5 39 29
53 50 21 157 129 157 158 0 8 3 17 7 21 4 3 8 12 10 19 1 7 7 29 12 51 5 21 8
69 6 107 -7 126 -88 245 -204 300 -63 30 -168 34 -239 10z"/>
</g>
</svg>
